<svg xmlns="http://www.w3.org/2000/svg" xmlns:xlink="http://www.w3.org/1999/xlink" width="1920" height="1080" viewBox="0 0 1920 1080">
  <defs>
    <clipPath id="clip-path">
      <rect id="Rectangle_7" data-name="Rectangle 7" width="688.939" height="920.565" fill="none"/>
    </clipPath>
    <clipPath id="clip-path-2">
      <rect id="Rectangle_7-2" data-name="Rectangle 7" width="648.968" height="855.008" fill="none"/>
    </clipPath>
    <clipPath id="clip-path-3">
      <rect id="Rectangle_1" data-name="Rectangle 1" width="992.468" height="952.533" fill="none"/>
    </clipPath>
    <clipPath id="clip-path-4">
      <rect id="Rectangle_2" data-name="Rectangle 2" width="805.699" height="773.279" fill="none"/>
    </clipPath>
    <clipPath id="clip-Web_1920_1">
      <rect width="1920" height="1080"/>
    </clipPath>
  </defs>
  <g id="Web_1920_1" data-name="Web 1920 – 1" clip-path="url(#clip-Web_1920_1)">
    <rect width="1920" height="1080" fill="#f3f3f3"/>
    <g id="Group_11" data-name="Group 11" transform="matrix(0.946, 0.326, -0.326, 0.946, 170.701, 26.145)">
      <g id="Group_9" data-name="Group 9" transform="translate(136.192 -42.664)" clip-path="url(#clip-path)">
        <path id="Path_5" data-name="Path 5" d="M688.93,915.755c-2.239-46.445-20.159-88.282-44.454-118.588-27.109-33.814-61.758-52.413-96.515-63.791-38.58-12.636-78.316-18.366-117.71-23.194-40.981-5.024-82.065-8.237-123.022-13.666-68.365-9.061-139.328-22.66-200.458-70.012A236.592,236.592,0,0,1,39,544.3C17.9,501.768,10.68,451.385,8.39,400.3c-2.6-58.171-2.175-116.858-.444-175.067q2.633-88.823,10.991-177.04Q20.959,26.931,23.3,5.739c.666-6.034-5.89-8.189-6.559-2.126A2781.152,2781.152,0,0,0,.432,357.131C1.39,411.1,3.286,467.015,19.872,516.616a247.017,247.017,0,0,0,57.845,95.265c54.019,54.859,120.84,75.593,185.6,87.352,81.322,14.767,163.643,15.448,244.72,33.2,36.741,8.046,73.986,19.667,106.535,46.169,28.534,23.232,53.155,59.654,63.258,104.774a192.88,192.88,0,0,1,4.384,32.794c.3,6.116,7.013,5.715,6.717-.419" transform="translate(-0.002 0)" fill="#bf8d78"/>
      </g>
    </g>
    <g id="Group_3" data-name="Group 3" transform="matrix(0.883, 0.469, -0.469, 0.883, 1473.524, -326.446)">
      <g id="Group_9-2" data-name="Group 9" clip-path="url(#clip-path-2)">
        <path id="Path_5-2" data-name="Path 5" d="M648.96,850.541A191.349,191.349,0,0,0,607.086,740.4c-25.536-31.406-58.175-48.681-90.916-59.248-36.342-11.736-73.773-17.058-110.881-21.542-38.6-4.666-77.3-7.65-115.885-12.693-64.4-8.416-131.245-21.047-188.828-65.026a220.48,220.48,0,0,1-63.838-76.355C16.863,466.036,10.06,419.241,7.9,371.8c-2.451-54.029-2.049-108.536-.418-162.6q2.48-82.5,10.353-164.433,1.9-19.749,4.111-39.433c.627-5.6-5.549-7.606-6.179-1.975A2547.218,2547.218,0,0,0,.407,331.7c.9,50.124,2.689,102.059,18.312,148.128a228.9,228.9,0,0,0,54.489,88.481c50.885,50.952,113.829,70.21,174.833,81.132,76.6,13.715,154.149,14.348,230.522,30.839,34.609,7.473,69.694,18.266,100.354,42.881,26.879,21.578,50.071,55.406,59.588,97.313a176.78,176.78,0,0,1,4.13,30.459c.279,5.68,6.606,5.308,6.328-.39" transform="translate(-0.002 0)" fill="#bf8d78"/>
      </g>
    </g>
    <g id="Group_1" data-name="Group 1" transform="translate(-216.358 -153.5)" clip-path="url(#clip-path-3)">
      <path id="Path_1" data-name="Path 1" d="M967.678,140.776c-170.19-328.067-959.24-22.9-967.5,305.31-3.383,134.366,41.409,283.845,137.5,380.98,118.038,119.309,313.13,164.4,462.235,87.353C714.86,855.028,789.368,733.341,813.429,606.206c24.389-128.864,211.916-279.544,173.993-414.933a263.83,263.83,0,0,0-19.744-50.5" transform="translate(0 -0.001)" fill="#cfa4a4"/>
    </g>
    <g id="Group_2" data-name="Group 2" transform="matrix(0.985, 0.174, -0.174, 0.985, 1427.362, 473.823)" clip-path="url(#clip-path-4)">
      <path id="Path_2" data-name="Path 2" d="M785.574,114.284C647.412-152.045,6.85,95.7.145,362.139-2.6,471.219,33.761,592.568,111.773,671.424c95.825,96.857,254.2,133.459,375.248,70.914,93.312-48.215,153.8-147,173.332-250.212,19.8-104.613,172.036-226.938,141.25-336.848a214.185,214.185,0,0,0-16.029-40.993" transform="translate(0 -0.001)" fill="#22242c"/>
    </g>
  </g>
</svg>
